<?xml version="1.0" encoding="UTF-8" standalone="no"?>
<svg width="280px" height="250px" viewBox="0 0 280 250" version="1.1" xmlns="http://www.w3.org/2000/svg" xmlns:xlink="http://www.w3.org/1999/xlink" xmlns:sketch="http://www.bohemiancoding.com/sketch/ns">
    <!-- Generator: Sketch 3.4.4 (17249) - http://www.bohemiancoding.com/sketch -->
    <title>Group + gruvbox copy + Line Copy 2 Copy</title>
    <desc>Created with Sketch.</desc>
    <defs>
        <rect id="path-1" x="0" y="0" width="60" height="60" rx="6"></rect>
        <rect id="path-2" x="192" y="0" width="60" height="60" rx="6"></rect>
        <rect id="path-3" x="128" y="0" width="60" height="60" rx="6"></rect>
        <rect id="path-4" x="64" y="0" width="60" height="60" rx="6"></rect>
        <rect id="path-5" x="0" y="64" width="60" height="60" rx="6"></rect>
        <rect id="path-6" x="128" y="64" width="60" height="60" rx="6"></rect>
        <rect id="path-7" x="64" y="64" width="60" height="60" rx="6"></rect>
        <rect id="path-8" x="192" y="64" width="60" height="60" rx="6"></rect>
    </defs>
    <g id="Page-1" stroke="none" stroke-width="1" fill="none" fill-rule="evenodd" sketch:type="MSPage">
        <g id="Desktop-Landscape" sketch:type="MSArtboardGroup" transform="translate(-726.000000, -368.000000)">
            <rect id="Rectangle-18" fill="#FFFFFF" sketch:type="MSShapeGroup" x="612" y="200" width="544" height="542"></rect>
            <g id="Group-+-gruvbox-copy-+-Line-Copy-2-Copy" sketch:type="MSLayerGroup" transform="translate(738.000000, 383.000000)">
                <g id="Group" transform="translate(2.000000, 95.000000)">
                    <g id="Rectangle-2-Copy-7">
                        <use stroke="#282828" stroke-width="1.5" sketch:type="MSShapeGroup" xlink:href="#path-1"></use>
                        <use stroke="none" xlink:href="#path-1"></use>
                        <use stroke="none" xlink:href="#path-1"></use>
                    </g>
                    <g id="Rectangle-2-Copy-4">
                        <use stroke="#282828" stroke-width="1.5" sketch:type="MSShapeGroup" xlink:href="#path-2"></use>
                        <use stroke="none" xlink:href="#path-2"></use>
                        <use stroke="none" xlink:href="#path-2"></use>
                    </g>
                    <g id="Rectangle-2-Copy-5">
                        <use stroke="#282828" stroke-width="1.5" sketch:type="MSShapeGroup" xlink:href="#path-3"></use>
                        <use stroke="none" xlink:href="#path-3"></use>
                        <use stroke="none" xlink:href="#path-3"></use>
                    </g>
                    <g id="Rectangle-2-Copy-6">
                        <use stroke="#282828" stroke-width="1.5" sketch:type="MSShapeGroup" xlink:href="#path-4"></use>
                        <use stroke="none" xlink:href="#path-4"></use>
                        <use stroke="none" xlink:href="#path-4"></use>
                    </g>
                    <g id="Rectangle-2-Copy-3">
                        <use stroke="#282828" stroke-width="1.5" sketch:type="MSShapeGroup" xlink:href="#path-5"></use>
                        <use stroke="none" xlink:href="#path-5"></use>
                        <use stroke="none" xlink:href="#path-5"></use>
                    </g>
                    <g id="Rectangle-2-Copy-2">
                        <use stroke="#282828" stroke-width="1.5" sketch:type="MSShapeGroup" xlink:href="#path-6"></use>
                        <use stroke="none" xlink:href="#path-6"></use>
                        <use stroke="none" xlink:href="#path-6"></use>
                    </g>
                    <g id="Rectangle-2-Copy">
                        <use stroke="#282828" stroke-width="1.5" sketch:type="MSShapeGroup" xlink:href="#path-7"></use>
                        <use stroke="none" xlink:href="#path-7"></use>
                        <use stroke="none" xlink:href="#path-7"></use>
                    </g>
                    <g id="Rectangle-2">
                        <use stroke="#282828" stroke-width="1.5" sketch:type="MSShapeGroup" xlink:href="#path-8"></use>
                        <use stroke="none" xlink:href="#path-8"></use>
                        <use stroke="none" xlink:href="#path-8"></use>
                    </g>
                </g>
                <g id="gruvbox-copy-+-Line-Copy-2" sketch:type="MSShapeGroup">
                    <path d="M45,69.75 L255,69.75" id="Line-Copy-2" stroke="#282828" stroke-width="1.5" stroke-linecap="square"></path>
                    <path d="M32.144,46.072 L31.928,46.072 C31.3039969,47.7040082 30.4640053,49.1319939 29.408,50.356 C28.3519947,51.5800061 27.1760065,52.6119958 25.88,53.452 C24.5839935,54.2920042 23.1800076,54.9279978 21.668,55.36 C20.1559924,55.7920022 18.6080079,56.008 17.024,56.008 C14.623988,56.008 12.4040102,55.5640044 10.364,54.676 C8.3239898,53.7879956 6.57200732,52.5640078 5.108,51.004 C3.64399268,49.4439922 2.50400408,47.5960107 1.688,45.46 C0.87199592,43.3239893 0.464,41.0080125 0.464,38.512 C0.464,36.0159875 0.87199592,33.6880108 1.688,31.528 C2.50400408,29.3679892 3.64399268,27.4960079 5.108,25.912 C6.57200732,24.3279921 8.3239898,23.0920044 10.364,22.204 C12.4040102,21.3159956 14.623988,20.872 17.024,20.872 C20.1920158,20.872 23.1079867,21.7119916 25.772,23.392 C28.4360133,25.0720084 30.4879928,27.5679834 31.928,30.88 L32.144,30.88 L32.144,21.88 L33.728,21.88 L33.728,53.128 C33.728,55.7680132 33.4520028,58.287988 32.9,60.688 C32.3479972,63.088012 31.4360064,65.1999909 30.164,67.024 C28.8919936,68.8480091 27.2120104,70.2999946 25.124,71.38 C23.0359896,72.4600054 20.4560154,73 17.384,73 C14.2639844,73 11.4800122,72.4600054 9.032,71.38 C6.58398776,70.2999946 4.49600864,68.7760098 2.768,66.808 L3.848,65.728 C5.67200912,67.7920103 7.74798836,69.2919953 10.076,70.228 C12.4040116,71.1640047 14.8399873,71.632 17.384,71.632 C20.2640144,71.632 22.6639904,71.1040053 24.584,70.048 C26.5040096,68.9919947 28.0159945,67.6000086 29.12,65.872 C30.2240055,64.1439914 31.0039977,62.1640112 31.46,59.932 C31.9160023,57.6999888 32.144,55.384012 32.144,52.984 L32.144,46.072 Z M2.048,38.512 C2.048,40.6720108 2.39599652,42.7359902 3.092,44.704 C3.78800348,46.6720098 4.78399352,48.3999926 6.08,49.888 C7.37600648,51.3760074 8.94799076,52.5519957 10.796,53.416 C12.6440092,54.2800043 14.7199885,54.712 17.024,54.712 C19.232011,54.712 21.2599908,54.2800043 23.108,53.416 C24.9560092,52.5519957 26.5519933,51.3760074 27.896,49.888 C29.2400067,48.3999926 30.2959962,46.6720098 31.064,44.704 C31.8320038,42.7359902 32.216,40.648011 32.216,38.44 C32.216,36.231989 31.8320038,34.1440098 31.064,32.176 C30.2959962,30.2079902 29.2400067,28.4920073 27.896,27.028 C26.5519933,25.5639927 24.9560092,24.4000043 23.108,23.536 C21.2599908,22.6719957 19.232011,22.24 17.024,22.24 C14.7199885,22.24 12.6440092,22.6839956 10.796,23.572 C8.94799076,24.4600044 7.37600648,25.6479926 6.08,27.136 C4.78399352,28.6240074 3.78800348,30.3519902 3.092,32.32 C2.39599652,34.2880098 2.048,36.3519892 2.048,38.512 L2.048,38.512 Z M50.288,30.592 C51.2480048,27.1359827 52.7839894,24.6520076 54.896,23.14 C57.0080106,21.6279924 59.2879878,20.872 61.736,20.872 L62.384,20.872 C62.576001,20.872 62.7919988,20.8959998 63.032,20.944 L63.032,22.312 C62.839999,22.2639998 62.6600008,22.24 62.492,22.24 L62.096,22.24 C59.9839894,22.24 58.1840074,22.7079953 56.696,23.644 C55.2079926,24.5800047 53.9840048,25.8039924 53.024,27.316 C52.0639952,28.8280076 51.3560023,30.5079908 50.9,32.356 C50.4439977,34.2040092 50.216,36.0399909 50.216,37.864 L50.216,55 L48.632,55 L48.632,30.232 C48.632,29.7039974 48.6200001,29.0560038 48.596,28.288 C48.5719999,27.5199962 48.5480001,26.740004 48.524,25.948 C48.4999999,25.155996 48.4640002,24.4000036 48.416,23.68 C48.3679998,22.9599964 48.3200002,22.3600024 48.272,21.88 L49.856,21.88 C49.9040002,22.3600024 49.9399999,22.9599964 49.964,23.68 C49.9880001,24.4000036 50.0119999,25.1799958 50.036,26.02 C50.0600001,26.8600042 50.0839999,27.675996 50.108,28.468 C50.1320001,29.260004 50.144,29.9679969 50.144,30.592 L50.288,30.592 Z M95.72,46.288 C95.1919974,47.8240077 94.4840044,49.2039939 93.596,50.428 C92.7079956,51.6520061 91.6880058,52.6719959 90.536,53.488 C89.3839942,54.3040041 88.1360067,54.9279978 86.792,55.36 C85.4479933,55.7920022 84.0560072,56.008 82.616,56.008 C80.3119885,56.008 78.3920077,55.6000041 76.856,54.784 C75.3199923,53.9679959 74.0960046,52.8880067 73.184,51.544 C72.2719954,50.1999933 71.6240019,48.6880084 71.24,47.008 C70.8559981,45.3279916 70.664,43.6240086 70.664,41.896 L70.664,21.88 L72.248,21.88 L72.248,41.752 C72.248,43.144007 72.3919986,44.5959924 72.68,46.108 C72.9680014,47.6200076 73.507996,48.9999938 74.3,50.248 C75.092004,51.4960062 76.1479934,52.5399958 77.468,53.38 C78.7880066,54.2200042 80.5039894,54.64 82.616,54.64 C84.4400091,54.64 86.155992,54.2680037 87.764,53.524 C89.372008,52.7799963 90.7639941,51.712007 91.94,50.32 C93.1160059,48.927993 94.0519965,47.23601 94.748,45.244 C95.4440035,43.25199 95.792,40.9840127 95.792,38.44 L95.792,21.88 L97.376,21.88 L97.376,46.648 C97.376,47.1760026 97.3879999,47.8239962 97.412,48.592 C97.4360001,49.3600038 97.4599999,50.139996 97.484,50.932 C97.5080001,51.724004 97.5439998,52.4799964 97.592,53.2 C97.6400002,53.9200036 97.6879998,54.5199976 97.736,55 L96.152,55 C96.1039998,54.5199976 96.0680001,53.9200036 96.044,53.2 C96.0199999,52.4799964 95.9960001,51.7000042 95.972,50.86 C95.9479999,50.0199958 95.9240001,49.204004 95.9,48.412 C95.8759999,47.619996 95.864,46.9120031 95.864,46.288 L95.72,46.288 Z M121.928,55 L119.84,55 L106.808,21.88 L108.536,21.88 L120.848,53.416 L120.992,53.416 L132.872,21.88 L134.6,21.88 L121.928,55 Z M145.472,30.88 C146.912007,27.5679834 148.963987,25.0720084 151.628,23.392 C154.292013,21.7119916 157.207984,20.872 160.376,20.872 C162.824012,20.872 165.06799,21.3159956 167.108,22.204 C169.14801,23.0920044 170.899993,24.3159922 172.364,25.876 C173.828007,27.4360078 174.955996,29.2959892 175.748,31.456 C176.540004,33.6160108 176.936,35.9679873 176.936,38.512 C176.936,41.0080125 176.528004,43.3239893 175.712,45.46 C174.895996,47.5960107 173.756007,49.4439922 172.292,51.004 C170.827993,52.5640078 169.07601,53.7879956 167.036,54.676 C164.99599,55.5640044 162.776012,56.008 160.376,56.008 C158.791992,56.008 157.244008,55.7920022 155.732,55.36 C154.219992,54.9279978 152.816006,54.2920042 151.52,53.452 C150.223994,52.6119958 149.048005,51.5800061 147.992,50.356 C146.935995,49.1319939 146.096003,47.7040082 145.472,46.072 L145.256,46.072 L145.256,55 L143.672,55 L143.672,0.568 L145.256,0.568 L145.256,30.88 L145.472,30.88 Z M175.352,38.512 C175.352,36.3519892 175.004003,34.2880098 174.308,32.32 C173.611997,30.3519902 172.616006,28.6240074 171.32,27.136 C170.023994,25.6479926 168.452009,24.4600044 166.604,23.572 C164.755991,22.6839956 162.680012,22.24 160.376,22.24 C158.167989,22.24 156.140009,22.6719957 154.292,23.536 C152.443991,24.4000043 150.848007,25.5639927 149.504,27.028 C148.159993,28.4920073 147.104004,30.2079902 146.336,32.176 C145.567996,34.1440098 145.184,36.231989 145.184,38.44 C145.184,40.648011 145.567996,42.7359902 146.336,44.704 C147.104004,46.6720098 148.159993,48.3879927 149.504,49.852 C150.848007,51.3160073 152.443991,52.4799957 154.292,53.344 C156.140009,54.2080043 158.167989,54.64 160.376,54.64 C162.680012,54.64 164.755991,54.2080043 166.604,53.344 C168.452009,52.4799957 170.023994,51.3160073 171.32,49.852 C172.616006,48.3879927 173.611997,46.6720098 174.308,44.704 C175.004003,42.7359902 175.352,40.6720108 175.352,38.512 L175.352,38.512 Z M220.496,38.368 C220.496,40.960013 220.076004,43.3359892 219.236,45.496 C218.395996,47.6560108 217.208008,49.5159922 215.672,51.076 C214.135992,52.6360078 212.300011,53.8479957 210.164,54.712 C208.027989,55.5760043 205.688013,56.008 203.144,56.008 C200.599987,56.008 198.272011,55.5760043 196.16,54.712 C194.047989,53.8479957 192.224008,52.6360078 190.688,51.076 C189.151992,49.5159922 187.964004,47.6560108 187.124,45.496 C186.283996,43.3359892 185.864,40.960013 185.864,38.368 C185.864,35.775987 186.283996,33.4120107 187.124,31.276 C187.964004,29.1399893 189.151992,27.3040077 190.688,25.768 C192.224008,24.2319923 194.047989,23.0320043 196.16,22.168 C198.272011,21.3039957 200.599987,20.872 203.144,20.872 C205.688013,20.872 208.027989,21.3039957 210.164,22.168 C212.300011,23.0320043 214.135992,24.2319923 215.672,25.768 C217.208008,27.3040077 218.395996,29.1399893 219.236,31.276 C220.076004,33.4120107 220.496,35.775987 220.496,38.368 L220.496,38.368 Z M218.912,38.368 C218.912,36.159989 218.552004,34.0720098 217.832,32.104 C217.111996,30.1359902 216.068007,28.4200073 214.7,26.956 C213.331993,25.4919927 211.67601,24.3400042 209.732,23.5 C207.78799,22.6599958 205.592012,22.24 203.144,22.24 C200.695988,22.24 198.51201,22.6599958 196.592,23.5 C194.67199,24.3400042 193.028007,25.4919927 191.66,26.956 C190.291993,28.4200073 189.248004,30.1359902 188.528,32.104 C187.807996,34.0720098 187.448,36.159989 187.448,38.368 C187.448,40.6240113 187.807996,42.7359902 188.528,44.704 C189.248004,46.6720098 190.291993,48.3879927 191.66,49.852 C193.028007,51.3160073 194.67199,52.4799957 196.592,53.344 C198.51201,54.2080043 200.695988,54.64 203.144,54.64 C205.592012,54.64 207.78799,54.2080043 209.732,53.344 C211.67601,52.4799957 213.331993,51.3160073 214.7,49.852 C216.068007,48.3879927 217.111996,46.6720098 217.832,44.704 C218.552004,42.7359902 218.912,40.6240113 218.912,38.368 L218.912,38.368 Z M240.656,38.584 L228.56,55 L226.544,55 L239.648,37.504 L228.2,21.88 L230.216,21.88 L240.728,36.424 L251.168,21.88 L253.256,21.88 L241.736,37.504 L255.056,55 L252.968,55 L240.656,38.584 Z" id="gruvbox-copy" fill="#282828"></path>
                </g>
            </g>
        </g>
    </g>
</svg>